<svg xmlns="http://www.w3.org/2000/svg" width="154.917" height="39.16"><style>.st2{fill:#5fbbd0}.st3{font-family:&apos;DINCondensed-Bold&apos;}.st4{font-size:55px}.st5{letter-spacing:3}</style><path class="st2" d="M8.195 5.28c1.65 0 2.786.422 3.41 1.265.623.844.935 2.035.935 3.575v18.865c0 1.687-.33 2.924-.99 3.712-.66.789-1.779 1.183-3.355 1.183H5.61V5.28h2.585zM7.81 39.16c3.336 0 5.894-.871 7.672-2.612 1.778-1.741 2.667-4.446 2.667-8.113V10.12c0-3.226-.834-5.72-2.502-7.48C13.979.88 11.531 0 8.305 0H0v39.16h7.81zM26.158 18.222h16.555v5.61H26.158zM154.917 39.16v-5.61h-11.11V22.055h9.68v-5.28h-9.68V5.28h11.11V0h-16.72v39.16h16.72zM120.141 5.28c1.65 0 2.786.422 3.41 1.265.623.844.935 2.035.935 3.575v18.865c0 1.687-.33 2.924-.99 3.712-.66.789-1.779 1.183-3.355 1.183h-2.585V5.28h2.585zm-.385 33.88c3.336 0 5.894-.871 7.672-2.612 1.778-1.741 2.667-4.446 2.667-8.113V10.12c0-3.226-.834-5.72-2.502-7.48C125.925.88 123.477 0 120.251 0h-8.305v39.16h7.81zm-31.245 0 1.65-8.415h7.645l1.65 8.415h5.61L96.32 0h-4.675L82.9 39.16h5.611zm2.639-13.695 2.75-14.19h.11l2.75 14.19h-5.61zM56.33 39.16V15.345h.11l5.5 16.83h2.805l5.555-16.83h.11V39.16h5.61V0h-5.445l-7.15 20.735h-.11L56.11 0h-5.39v39.16h5.61z"/></svg>